Coordinates
version=1
nRows=11
nColumns=40
inDegrees=yes

Units are S.I. units (second, meters, Newtons, ...)
Angles are in degrees.

endheader
time	pelvis_tilt	pelvis_list	pelvis_rotation	pelvis_tx	pelvis_ty	pelvis_tz	hip_flexion_r	hip_adduction_r	hip_rotation_r	knee_angle_r	knee_angle_r_beta	ankle_angle_r	subtalar_angle_r	mtp_angle_r	hip_flexion_l	hip_adduction_l	hip_rotation_l	knee_angle_l	knee_angle_l_beta	ankle_angle_l	subtalar_angle_l	mtp_angle_l	lumbar_extension	lumbar_bending	lumbar_rotation	arm_flex_r	arm_add_r	arm_rot_r	elbow_flex_r	pro_sup_r	wrist_flex_r	wrist_dev_r	arm_flex_l	arm_add_l	arm_rot_l	elbow_flex_l	pro_sup_l	wrist_flex_l	wrist_dev_l
     41.60750000	     -6.09315560	     -5.14476387	      2.57697888	      0.92107519	      0.91658053	      0.45360077	      4.24348606	      0.29829642	    -13.20695432	     31.61864335	     31.61864335	     12.85709462	     -7.40921816	    -15.17424082	     29.92777758	     -4.67521890	      1.54993263	     27.39163908	     27.39163908	      6.91349484	    -14.40803861	      4.99279051	     -7.99259700	      1.57085737	      3.03305842	     28.85643927	    -10.87172176	     13.11965755	     70.86162701	     45.34819507	      0.00000000	      0.00000000	     -0.94489597	     -8.46726593	     -4.46287332	     30.45923127	     45.48982856	      0.00000000	      0.00000000
     41.62114286	     -6.02302043	     -5.01917633	      2.19744443	      0.92218731	      0.91783969	      0.45128907	      5.93060110	     -0.43539811	    -12.72321189	     35.54055915	     35.54055915	     11.02428103	     -9.63657608	    -15.79743498	     29.13059093	     -4.58163038	      1.14119245	     27.27707896	     27.27707896	      7.40013928	    -14.46935252	      4.78512799	     -8.03455985	      1.43002481	      3.53184990	     27.17435008	    -11.51640156	     13.48736050	     68.54253917	     45.40094898	      0.00000000	      0.00000000	      0.02410899	     -8.72768387	     -4.64887875	     30.98775722	     45.54174482	      0.00000000	      0.00000000
     41.63478571	     -5.95077994	     -4.78149333	      1.88098218	      0.92304844	      0.91894695	      0.44879843	      7.79481751	     -1.41439308	    -12.51799585	     39.71000637	     39.71000637	      9.05321296	    -11.30191854	    -16.14068328	     28.29779373	     -4.37284360	      0.57004763	     27.06970746	     27.06970746	      7.90568411	    -14.23357025	      4.52067829	     -8.17126510	      1.22294092	      3.63499154	     25.59283979	    -11.92366607	     13.85692519	     66.57155150	     45.44455302	      0.00000000	      0.00000000	      0.92638115	     -8.97690973	     -4.72906902	     31.47566667	     45.57119485	      0.00000000	      0.00000000
     41.64842857	     -5.84966191	     -4.55474457	      1.61735289	      0.92372622	      0.91994894	      0.44625000	      9.72958811	     -2.35691108	    -12.30977525	     43.87681555	     43.87681555	      6.85607930	    -13.16765823	    -16.08636023	     27.46875762	     -4.15731689	      0.01051130	     26.88520719	     26.88520719	      8.38020571	    -13.92240419	      4.22280014	     -8.33900361	      1.08525000	      3.69062197	     24.02835614	    -12.35932465	     14.22888652	     64.38011864	     45.49584869	      0.00000000	      0.00000000	      1.90602502	     -9.23588532	     -4.78416965	     32.04680274	     45.59710675	      0.00000000	      0.00000000
     41.66207143	     -5.76797662	     -4.56614670	      1.34833317	      0.92423304	      0.92093920	      0.44397601	     11.72859734	     -2.83099573	    -11.83898665	     47.80440044	     47.80440044	      4.50126494	    -15.48163870	    -15.10315394	     26.70496456	     -4.25979952	     -0.67315971	     26.71431426	     26.71431426	      8.78923303	    -13.29638858	      3.47814972	     -8.33963522	      1.19627985	      3.26532437	     23.78332337	    -11.98883665	     15.05028220	     58.26499910	     45.65995968	      0.00000000	      0.00000000	      2.42178136	     -9.62177378	     -4.64908003	     32.94186359	     45.60174081	      0.00000000	      0.00000000
     41.67571429	     -5.74155085	     -4.28180281	      1.11511122	      0.92453211	      0.92171852	      0.44136639	     13.86084892	     -3.83098409	    -11.64879214	     51.73773071	     51.73773071	      2.44092716	    -16.72502370	    -14.14482932	     25.89437330	     -3.94888186	     -1.24402816	     26.35347921	     26.35347921	      9.18404249	    -12.89810345	      3.21771251	     -8.44562940	      1.06881304	      3.11684171	     22.11282292	    -12.45464596	     15.43161435	     56.42255868	     45.69630859	      0.00000000	      0.00000000	      3.25013024	     -9.96811913	     -4.73929633	     33.69394618	     45.63078763	      0.00000000	      0.00000000
     41.68935714	     -5.64960607	     -4.20924090	      0.94347940	      0.92470885	      0.92254602	      0.43906448	     16.08229307	     -4.39012651	    -11.27226326	     55.74723257	     55.74723257	      2.38274509	    -16.96136909	     -7.30752563	     25.11320903	     -3.92320877	     -1.92126387	     26.10343873	     26.10343873	      9.46671366	    -12.19543472	      2.35108156	     -8.51776607	      1.14941086	      2.29089641	     21.99812872	    -11.94913895	     16.34345854	     50.43006377	     45.83618534	      0.00000000	      0.00000000	      3.30811824	    -10.61154176	     -4.55196276	     35.59441463	     45.63964998	      0.00000000	      0.00000000
     41.70300000	     -5.51476713	     -4.00231249	      0.82748116	      0.92478350	      0.92341004	      0.43658652	     17.97508285	     -5.19744065	    -11.11960545	     58.89486791	     58.89486791	      0.61557840	    -17.89816634	     -6.51806588	     24.26475722	     -3.64310268	     -2.33445134	     25.80691085	     25.80691085	      9.86041364	    -11.85435360	      2.16530536	     -8.80157360	      1.11629287	      2.02662407	     20.15156612	    -12.56880606	     16.56500055	     49.15937365	     45.85810426	      0.00000000	      0.00000000	      4.25792196	    -11.05080701	     -4.68169573	     36.25929387	     45.67396764	      0.00000000	      0.00000000
     41.71664286	     -5.47029625	     -3.97902552	      0.56741409	      0.92475578	      0.92421163	      0.43468867	     20.19133592	     -5.49075645	    -10.53217562	     62.10938608	     62.10938608	      1.30235630	    -17.81597482	      0.72597952	     23.49013561	     -3.69465430	     -3.02355473	     25.47328039	     25.47328039	     10.17761893	    -11.11191046	      1.48804936	     -8.83611308	      1.27859092	      1.89725791	     19.26415075	    -12.63985741	     16.74201329	     44.55735821	     45.97159571	      0.00000000	      0.00000000	      4.64583840	    -11.55952476	     -4.42259395	     38.19333172	     45.69214492	      0.00000000	      0.00000000
     41.73028571	     -5.41310930	     -3.85532402	      0.36561467	      0.92462747	      0.92508841	      0.43272219	     22.05664518	     -5.97018957	    -10.16287635	     64.38480704	     64.38480704	      0.26858137	    -18.27426609	      1.41218478	     22.66680476	     -3.53025534	     -3.42673725	     25.04651778	     25.04651778	     10.51156813	    -10.74407971	      1.33866129	     -8.98404061	      1.33306718	      1.92128412	     17.31701843	    -13.37895509	     16.88154319	     43.06762303	     46.00085353	      0.00000000	      0.00000000	      5.60642152	    -11.90868514	     -4.56195109	     39.06435087	     45.73113511	      0.00000000	      0.00000000
     41.74392857	     -5.31409386	     -3.80406982	      0.18433698	      0.92449697	      0.92605419	      0.43102417	     23.78610590	     -6.25313832	     -9.75902103	     66.20228232	     66.20228232	     -0.20089453	    -18.45997842	      2.52019917	     21.79908424	     -3.45546990	     -3.79583292	     24.61226524	     24.61226524	     10.85576019	    -10.25945846	      1.09154362	     -9.12322589	      1.46004269	      2.06737484	     15.38545127	    -14.12539792	     16.90483023	     41.18117408	     46.04943483	      0.00000000	      0.00000000	      6.54223590	    -12.32463785	     -4.68603619	     40.18818587	     45.77030154	      0.00000000	      0.00000000
